
<svg width="16" height="9" viewBox="0 0 16 9" fill="none" xmlns="http://www.w3.org/2000/svg">
<path d="M8.27408 8.882C8.55865 8.8805 8.81615 8.77121 9.02772 8.54885L15.4011 2.01952C15.5841 1.83654 15.6828 1.6102 15.6828 1.34519C15.6828 0.798432 15.2584 0.367188 14.7162 0.367188C14.4512 0.367188 14.2044 0.47349 14.0154 0.660154L7.86423 6.96871H8.68308L2.52583 0.660154C2.34219 0.476504 2.09693 0.367188 1.82355 0.367188C1.27981 0.367188 0.856934 0.798432 0.856934 1.34519C0.856934 1.6087 0.957212 1.83503 1.13718 2.02638L7.51352 8.54885C7.73885 8.77421 7.9841 8.882 8.27408 8.882Z" fill="#51606F"/>
</svg>
